<?xml version="1.0" encoding="UTF-8" standalone="no"?>
<!-- Generator: Adobe Illustrator 27.9.0, SVG Export Plug-In . SVG Version: 6.00 Build 0)  -->

<svg
   version="1.1"
   id="Layer_1"
   x="0px"
   y="0px"
   viewBox="0 0 429.29999 117.2"
   xml:space="preserve"
   sodipodi:docname="logo_white.svg"
   width="429.29999"
   height="117.2"
   inkscape:version="1.1.2 (0a00cf5339, 2022-02-04)"
   xmlns:inkscape="http://www.inkscape.org/namespaces/inkscape"
   xmlns:sodipodi="http://sodipodi.sourceforge.net/DTD/sodipodi-0.dtd"
   xmlns="http://www.w3.org/2000/svg"
   xmlns:svg="http://www.w3.org/2000/svg"><defs
   id="defs49" /><sodipodi:namedview
   id="namedview47"
   pagecolor="#ffffff"
   bordercolor="#666666"
   borderopacity="1.0"
   inkscape:pageshadow="2"
   inkscape:pageopacity="0.0"
   inkscape:pagecheckerboard="0"
   showgrid="false"
   fit-margin-top="0"
   fit-margin-left="0"
   fit-margin-right="0"
   fit-margin-bottom="0"
   inkscape:zoom="0.20461201"
   inkscape:cx="1446.6404"
   inkscape:cy="2084.4329"
   inkscape:window-width="1869"
   inkscape:window-height="1057"
   inkscape:window-x="51"
   inkscape:window-y="23"
   inkscape:window-maximized="1"
   inkscape:current-layer="Layer_1" />
<style
   type="text/css"
   id="style2">
	.st0{fill:#FFFFFF;}
	.st1{fill-rule:evenodd;clip-rule:evenodd;fill:#FFFFFF;}
</style>
<g
   id="g20"
   transform="translate(-444.4,-239.7)">
	<path
   class="st0"
   d="m 444.8,306.7 v -67 h 56.7 v 13.5 h -41.7 v 13.1 H 500 v 13.4 h -40.2 v 13.5 h 41.7 v 13.5 z"
   id="path4" />
	<path
   class="st0"
   d="m 508.5,323.7 v -67.1 h 13.9 v 13.7 h 1 c 1.8,-9.6 8.2,-14.7 20,-14.7 15.4,0 24,10.2 24,26.1 0,15.9 -8.4,26 -23.5,26 -11.6,0 -18,-5.7 -19.7,-14.5 h -0.7 v 30.5 z M 538.1,294 c 9.6,0 14.1,-3.2 14.1,-12.3 0,-9.2 -4.5,-12.3 -14,-12.3 -9.7,0 -14.7,3.3 -14.7,12.2 v 0.8 c 0,8.6 5.2,11.6 14.6,11.6 z"
   id="path6" />
	<path
   class="st0"
   d="m 573.2,251.5 v -11.8 h 15 v 11.8 z m 0,55.2 v -50.1 h 15 v 50.1 z"
   id="path8" />
	<path
   class="st0"
   d="m 613.5,306.7 -22.8,-50.1 h 16.7 l 15,35.5 h 1 l 15.1,-35.5 h 16.4 L 632,306.7 Z"
   id="path10" />
	<path
   class="st0"
   d="m 652.9,281.7 c 0,-16 11.3,-26.1 27.8,-26.1 16.4,0 27.3,8.6 27.3,24.3 0,1.8 -0.2,3.1 -0.4,4.8 h -40.8 c 0.4,7.7 4,11 13.7,11 8.9,0 12,-2.3 12,-6.6 v -1 h 15 v 1.1 c 0,10.9 -10.6,18.5 -26.5,18.5 -16.7,0 -28.1,-8.2 -28.1,-26 z m 14.1,-4.9 h 26.6 c -0.4,-6.6 -4.4,-9.5 -13.2,-9.5 -8.9,0 -12.7,3 -13.4,9.5 z"
   id="path12" />
	<path
   class="st0"
   d="m 713.8,306.7 v -50.1 h 13.9 v 13.3 h 0.9 c 1.4,-8.1 6.7,-14.3 16.8,-14.3 11.2,0 15.8,7.7 15.8,17.5 v 8.3 h -15 v -5.2 c 0,-5.5 -2.2,-7.9 -8.3,-7.9 -6.7,0 -9.1,3.1 -9.1,9.4 v 29 z"
   id="path14" />
	<path
   class="st0"
   d="m 764.6,289.5 v -0.3 h 15 v 0.9 c 0,4.5 2.8,5.7 11.3,5.7 8,0 9.9,-1.3 9.9,-4.3 0,-2.8 -1.5,-3.6 -7.4,-4.4 l -14.1,-1.7 c -10,-1.1 -15.6,-5.6 -15.6,-14 0,-8.8 7.5,-15.8 24.7,-15.8 16.4,0 25.7,6.2 25.7,18.4 v 0.3 h -15 v -0.6 c 0,-4.1 -2,-6.2 -11.2,-6.2 -7.5,0 -9.4,1.3 -9.4,4.5 0,2.6 1.4,3.7 8,4.5 l 10.7,1.3 c 13.4,1.5 18.4,6 18.4,14.3 0,9.4 -9.3,15.6 -24.8,15.6 -16.9,0 -26.2,-6.6 -26.2,-18.2 z"
   id="path16" />
	<path
   class="st0"
   d="m 818.6,281.7 c 0,-16 11.3,-26.1 27.8,-26.1 16.4,0 27.3,8.6 27.3,24.3 0,1.8 -0.2,3.1 -0.4,4.8 h -40.8 c 0.4,7.7 4,11 13.7,11 8.9,0 12,-2.3 12,-6.6 v -1 h 15 v 1.1 c 0,10.9 -10.6,18.5 -26.5,18.5 -16.7,0 -28.1,-8.2 -28.1,-26 z m 14.1,-4.9 h 26.6 c -0.4,-6.6 -4.4,-9.5 -13.2,-9.5 -8.9,0 -12.7,3 -13.4,9.5 z"
   id="path18" />
</g>
<g
   id="g44"
   transform="translate(-444.4,-239.7)">
	<path
   class="st1"
   d="m 686.8,345.4 c -2.8,0 -5,2.3 -5,5.1 0,2.9 2.1,5 5,5 2.8,0 5,-2.1 5,-5 -0.1,-2.9 -2.2,-5.1 -5,-5.1 m 18.7,-13.2 c -7.7,0 -13.1,4.7 -13.1,11.6 0,6.9 5.4,11.6 13.1,11.6 7.7,0 13.1,-4.7 13.1,-11.6 0,-6.9 -5.4,-11.6 -13.1,-11.6 m 0,22.7 c -2.5,0 -3.3,-2.2 -3.3,-11 0,-9.1 0.8,-11 3.3,-11 2.5,0 3.3,1.9 3.3,11 0,8.8 -0.8,11 -3.3,11 m 30.2,-23 c -2.9,0 -5.9,2.4 -6.3,5.5 l -8.9,-5.6 -0.1,23.7 h 9.1 l 0.1,-16.8 c 0,-3.6 4,-3.6 6.1,-3.6 z m 15.9,17.1 h -13.4 l 3.8,-2.5 c 1.6,0.5 2.3,0.5 4.2,0.5 7.4,0 10.8,-2.5 10.8,-7.4 0,-2.8 -1.4,-5.2 -4.4,-6.5 l 5.7,-0.1 v -3.4 l -6.7,3.1 c -1.4,-0.5 -3.2,-0.8 -5.4,-0.8 -7.3,0 -10.7,3.2 -10.7,7.3 0,3.1 1.8,5.3 4.7,6.6 l -4.9,3.1 2.2,7.8 h 21.2 c 0.1,-0.2 0.1,-0.4 0.1,-0.6 v -2.8 c -0.5,-2.6 -2.6,-4.3 -7.2,-4.3 m -5.3,-16.4 c 2.6,0 3,2.8 3,7 0,3.8 -0.4,6.8 -3,6.8 -2.6,0 -3,-3 -3,-6.8 -0.1,-4.2 0.3,-7 3,-7 M 631.6,332 c -2.2,0 -5.9,0.6 -8.8,1.6 v 3.3 c 1.9,-2 5,-4.3 7.7,-4.3 2.6,0 2.9,2.3 2.9,4.1 v 4.9 c -9,0.1 -13.1,3.2 -13.1,7.7 0,4 2.8,5.9 6.7,5.9 4,0 6.6,-2.5 6.9,-5.1 l 8.7,5.3 v -14.9 c -0.1,-6.7 -3.7,-8.5 -11,-8.5 m 1.8,17.5 c 0,1 -0.7,2.3 -2.2,2.3 -1.7,0 -2.5,-1.6 -2.5,-4 0,-2.6 1.3,-5.1 4.7,-5.7 z m 25.2,-18.3 h -3.4 v -6.1 l -8.8,6.1 H 643 v 1.8 h 3.3 v 22.4 h 8.9 l 0.1,-22.3 h 3.4 v -1.9 z M 609.7,323 v 13.5 c -0.7,-2.7 -3.3,-4.5 -6.6,-4.5 -5.8,0 -9.6,4.8 -9.6,11.8 0,6.9 3.3,11.5 9.4,11.5 4,0 6.3,-2.1 6.8,-5.2 l 9.1,5.4 v -26.9 z m 0,25.5 c 0,2.1 -1,3.6 -2.8,3.6 -3.4,0 -3.6,-3.7 -3.6,-8.6 0,-5.4 0.6,-8.4 3.6,-8.4 1.8,0 2.7,1.5 2.7,3.6 v 9.8 z M 668.5,332 c -2.2,0 -5.9,0.6 -8.8,1.6 v 3.3 c 1.9,-2 5,-4.3 7.7,-4.3 2.6,0 2.9,2.3 2.9,4.1 v 4.9 c -9,0.1 -13.1,3.2 -13.1,7.7 0,4 2.8,5.9 6.7,5.9 4,0 6.6,-2.5 6.9,-5.1 l 8.7,5.3 v -14.9 c 0,-6.7 -3.7,-8.5 -11,-8.5 m 1.8,17.5 c 0,1 -0.7,2.3 -2.2,2.3 -1.7,0 -2.5,-1.6 -2.5,-4 0,-2.6 1.3,-5.1 4.7,-5.7 z"
   id="path22" />
	<g
   id="g42">
		<path
   class="st0"
   d="M 444.4,356.9 V 341 h 0.9 v 3.3 h 0.2 c 0.6,-2.1 2.4,-3.6 5.2,-3.6 3.7,0 5.8,2.6 5.8,6.1 0,3.5 -2.1,6.1 -5.9,6.1 -2.6,0 -4.6,-1.5 -5.2,-3.7 v 7.5 h -1 z m 6.1,-4.8 c 3,0 5,-1.3 5,-5.2 0,-3.8 -2.1,-5.1 -4.9,-5.1 -3.1,0 -5.1,1.9 -5.1,5.1 v 0.2 c 0,3.1 2,5 5,5 z"
   id="path24" />
		<path
   class="st0"
   d="m 458.2,346.9 c 0,-3.5 2.5,-6.1 6.3,-6.1 3.8,0 6.3,2.6 6.3,6.1 0,3.5 -2.5,6.1 -6.3,6.1 -3.8,0 -6.3,-2.6 -6.3,-6.1 z m 11.5,0 c 0,-3.1 -1.7,-5.2 -5.3,-5.2 -3.6,0 -5.3,2 -5.3,5.2 0,3.1 1.7,5.2 5.3,5.2 3.6,0 5.3,-2.1 5.3,-5.2 z"
   id="path26" />
		<path
   class="st0"
   d="M 476,352.8 472,341 h 1.1 l 2.9,8.6 0.6,2.1 h 0.1 l 0.8,-2.2 3.5,-8.6 h 1.3 l 3.6,8.6 0.8,2.1 h 0.1 l 0.6,-2.1 2.9,-8.6 h 1.1 l -4,11.8 h -1.3 l -3.4,-8.4 -0.9,-2.4 h -0.1 l -0.9,2.4 -3.5,8.4 H 476 Z"
   id="path28" />
		<path
   class="st0"
   d="m 492.7,346.9 c 0,-3.5 2.3,-6.1 6.1,-6.1 3.3,0 5.7,2 5.7,5.4 0,0.4 0,0.8 -0.1,1.1 h -10.7 c 0.1,2.9 1.6,4.8 5,4.8 3,0 4.5,-1.2 4.5,-3.1 v -0.1 h 1.1 v 0.1 c 0,2.4 -2.4,4.1 -5.5,4.1 -3.8,-0.1 -6.1,-2.6 -6.1,-6.2 z m 1,-0.4 h 9.8 c 0,-0.2 0,-0.4 0,-0.6 0,-2.8 -1.8,-4.3 -4.8,-4.3 -3.4,0.1 -4.9,2 -5,4.9 z"
   id="path30" />
		<path
   class="st0"
   d="M 507,352.8 V 341 h 0.9 v 3.2 h 0.1 c 0.4,-1.8 1.7,-3.5 4.2,-3.5 2.7,0 4,2.1 4,4.2 v 0.9 h -1.1 V 345 c 0,-2.3 -0.9,-3.4 -3.2,-3.4 -2.7,0 -3.9,1.8 -3.9,4.8 v 6.3 h -1 z"
   id="path32" />
		<path
   class="st0"
   d="m 517.7,346.9 c 0,-3.5 2.3,-6.1 6.1,-6.1 3.3,0 5.7,2 5.7,5.4 0,0.4 0,0.8 -0.1,1.1 h -10.7 c 0.1,2.9 1.6,4.8 5,4.8 3,0 4.5,-1.2 4.5,-3.1 v -0.1 h 1.1 v 0.1 c 0,2.4 -2.4,4.1 -5.5,4.1 -3.8,-0.1 -6.1,-2.6 -6.1,-6.2 z m 1,-0.4 h 9.8 c 0,-0.2 0,-0.4 0,-0.6 0,-2.8 -1.8,-4.3 -4.8,-4.3 -3.3,0.1 -4.9,2 -5,4.9 z"
   id="path34" />
		<path
   class="st0"
   d="m 531.1,346.9 c 0,-3.5 2.1,-6.1 5.8,-6.1 2.8,0 4.6,1.5 5.2,3.6 h 0.1 v -7.6 h 1.1 v 16.1 h -0.9 v -3.6 h -0.1 c -0.6,2.4 -2.6,3.8 -5.2,3.8 -3.9,-0.1 -6,-2.7 -6,-6.2 z m 6.1,5.2 c 3,0 5,-1.9 5,-4.9 V 347 c 0,-3.2 -1.9,-5.1 -5.1,-5.1 -2.8,0 -4.9,1.3 -4.9,5.1 0,3.8 2.1,5.1 5,5.1 z"
   id="path36" />
		<path
   class="st0"
   d="m 555.8,352.8 v -16.1 h 1.1 v 7.6 h 0.1 c 0.6,-2 2.4,-3.6 5.2,-3.6 3.7,0 5.8,2.6 5.8,6.1 0,3.5 -2,6.1 -6,6.1 -2.6,0 -4.6,-1.4 -5.2,-3.8 h -0.1 v 3.6 h -0.9 z m 6.1,-0.7 c 3,0 5,-1.3 5,-5.2 0,-3.8 -2,-5.1 -4.9,-5.1 -3.2,0 -5.1,1.9 -5.1,5.1 v 0.2 c 0,3.1 2,5 5,5 z"
   id="path38" />
		<path
   class="st0"
   d="m 570.3,356.9 v -1 h 1.4 c 1.3,0 1.8,-0.4 2.3,-1.5 l 0.8,-1.7 -5.9,-11.7 h 1.2 l 3.8,7.6 1.4,2.9 h 0.1 l 1.4,-2.9 3.6,-7.6 h 1.1 l -6.6,13.7 c -0.7,1.6 -1.7,2.2 -3.3,2.2 z"
   id="path40" />
	</g>
</g>
</svg>
